<svg xmlns="http://www.w3.org/2000/svg" xmlns:xlink="http://www.w3.org/1999/xlink" version="1.1" baseProfile="full" style="user-select: none; position: absolute; left: 0px; top: 0px;" width="896" height="550">
<g>
<rect width="896" height="550" x="0" y="0" id="0" style="fill: transparent;">
</rect>
</g>
<g>
<path d="M 42 504.5 L 881 504.5" fill="none" stroke="#E0E6F1" stroke-width="1" paint-order="fill" stroke-opacity="1" stroke-dasharray="" stroke-linecap="butt" stroke-miterlimit="10">
</path>
<path d="M 42 433.5 L 881 433.5" fill="none" stroke="#E0E6F1" stroke-width="1" paint-order="fill" stroke-opacity="1" stroke-dasharray="" stroke-linecap="butt" stroke-miterlimit="10">
</path>
<path d="M 42 363.5 L 881 363.5" fill="none" stroke="#E0E6F1" stroke-width="1" paint-order="fill" stroke-opacity="1" stroke-dasharray="" stroke-linecap="butt" stroke-miterlimit="10">
</path>
<path d="M 42 292.5 L 881 292.5" fill="none" stroke="#E0E6F1" stroke-width="1" paint-order="fill" stroke-opacity="1" stroke-dasharray="" stroke-linecap="butt" stroke-miterlimit="10">
</path>
<path d="M 42 221.5 L 881 221.5" fill="none" stroke="#E0E6F1" stroke-width="1" paint-order="fill" stroke-opacity="1" stroke-dasharray="" stroke-linecap="butt" stroke-miterlimit="10">
</path>
<path d="M 42 150.5 L 881 150.5" fill="none" stroke="#E0E6F1" stroke-width="1" paint-order="fill" stroke-opacity="1" stroke-dasharray="" stroke-linecap="butt" stroke-miterlimit="10">
</path>
<path d="M 42 80.5 L 881 80.5" fill="none" stroke="#E0E6F1" stroke-width="1" paint-order="fill" stroke-opacity="1" stroke-dasharray="" stroke-linecap="butt" stroke-miterlimit="10">
</path>
<path d="M 42 504.5 L 881 504.5" fill="none" stroke="#6E7079" stroke-width="1" paint-order="fill" stroke-opacity="1" stroke-dasharray="" stroke-linecap="round" stroke-miterlimit="10">
</path>
<path d="M 48.5 504.4731 L 48.5 509.4731" fill="none" stroke="#6E7079" stroke-width="1" paint-order="fill" stroke-opacity="1" stroke-dasharray="" stroke-linecap="butt" stroke-miterlimit="10">
</path>
<path d="M 200.5 504.4731 L 200.5 509.4731" fill="none" stroke="#6E7079" stroke-width="1" paint-order="fill" stroke-opacity="1" stroke-dasharray="" stroke-linecap="butt" stroke-miterlimit="10">
</path>
<path d="M 352.5 504.4731 L 352.5 509.4731" fill="none" stroke="#6E7079" stroke-width="1" paint-order="fill" stroke-opacity="1" stroke-dasharray="" stroke-linecap="butt" stroke-miterlimit="10">
</path>
<path d="M 503.5 504.4731 L 503.5 509.4731" fill="none" stroke="#6E7079" stroke-width="1" paint-order="fill" stroke-opacity="1" stroke-dasharray="" stroke-linecap="butt" stroke-miterlimit="10">
</path>
<path d="M 656.5 504.4731 L 656.5 509.4731" fill="none" stroke="#6E7079" stroke-width="1" paint-order="fill" stroke-opacity="1" stroke-dasharray="" stroke-linecap="butt" stroke-miterlimit="10">
</path>
<path d="M 807.5 504.4731 L 807.5 509.4731" fill="none" stroke="#6E7079" stroke-width="1" paint-order="fill" stroke-opacity="1" stroke-dasharray="" stroke-linecap="butt" stroke-miterlimit="10">
</path>
<text xml:space="preserve" style="font: sans-serif 14px normal normal normal 14px;" fill="#6E7079" fill-opacity="1" stroke="none" transform="matrix(1,0,0,1,34,504.4731)" dominant-baseline="central" text-anchor="end" x="0" y="0">0</text>
<text xml:space="preserve" style="font: sans-serif 14px normal normal normal 14px;" fill="#6E7079" fill-opacity="1" stroke="none" transform="matrix(1,0,0,1,34,433.7276)" dominant-baseline="central" text-anchor="end" x="0" y="0">50</text>
<text xml:space="preserve" style="font: sans-serif 14px normal normal normal 14px;" fill="#6E7079" fill-opacity="1" stroke="none" transform="matrix(1,0,0,1,34,362.9821)" dominant-baseline="central" text-anchor="end" x="0" y="0">100</text>
<text xml:space="preserve" style="font: sans-serif 14px normal normal normal 14px;" fill="#6E7079" fill-opacity="1" stroke="none" transform="matrix(1,0,0,1,34,292.2365)" dominant-baseline="central" text-anchor="end" x="0" y="0">150</text>
<text xml:space="preserve" style="font: sans-serif 14px normal normal normal 14px;" fill="#6E7079" fill-opacity="1" stroke="none" transform="matrix(1,0,0,1,34,221.491)" dominant-baseline="central" text-anchor="end" x="0" y="0">200</text>
<text xml:space="preserve" style="font: sans-serif 14px normal normal normal 14px;" fill="#6E7079" fill-opacity="1" stroke="none" transform="matrix(1,0,0,1,34,150.7455)" dominant-baseline="central" text-anchor="end" x="0" y="0">250</text>
<text xml:space="preserve" style="font: sans-serif 14px normal normal normal 14px;" fill="#6E7079" fill-opacity="1" stroke="none" transform="matrix(1,0,0,1,34,80)" dominant-baseline="central" text-anchor="end" x="0" y="0">300</text>
<text xml:space="preserve" style="font: sans-serif 14px normal normal normal 14px;" fill="#6E7079" fill-opacity="1" stroke="none" transform="matrix(0.707,-0.707,0.707,0.707,48.6488,512.4731)" dominant-baseline="central" text-anchor="end" x="0" y="0">2017</text>
<text xml:space="preserve" style="font: sans-serif 14px normal normal normal 14px;" fill="#6E7079" fill-opacity="1" stroke="none" transform="matrix(0.707,-0.707,0.707,0.707,200.3254,512.4731)" dominant-baseline="central" text-anchor="end" x="0" y="0">2018</text>
<text xml:space="preserve" style="font: sans-serif 14px normal normal normal 14px;" fill="#6E7079" fill-opacity="1" stroke="none" transform="matrix(0.707,-0.707,0.707,0.707,352.002,512.4731)" dominant-baseline="central" text-anchor="end" x="0" y="0">2019</text>
<text xml:space="preserve" style="font: sans-serif 14px normal normal normal 14px;" fill="#6E7079" fill-opacity="1" stroke="none" transform="matrix(0.707,-0.707,0.707,0.707,503.6786,512.4731)" dominant-baseline="central" text-anchor="end" x="0" y="0">2020</text>
<text xml:space="preserve" style="font: sans-serif 14px normal normal normal 14px;" fill="#6E7079" fill-opacity="1" stroke="none" transform="matrix(0.707,-0.707,0.707,0.707,655.7707,512.4731)" dominant-baseline="central" text-anchor="end" x="0" y="0">2021</text>
<text xml:space="preserve" style="font: sans-serif 14px normal normal normal 14px;" fill="#6E7079" fill-opacity="1" stroke="none" transform="matrix(0.707,-0.707,0.707,0.707,807.4473,512.4731)" dominant-baseline="central" text-anchor="end" x="0" y="0">2022</text>
<g clip-path="url(#zr2576-clip-0)">
<path d="M 42 501.6433 C 42 501.6433 43.87 501.6433 45.74 501.6433 C 48.0255 501.6433 48.0255 501.6433 50.311 501.6433 C 52.3888 501.6433 52.4458 501.6433 54.4666 501.6433 C 56.6013 501.6433 56.4846 500.2284 58.6221 500.2284 C 60.8479 500.2284 60.9076 500.2284 63.1932 500.2284 C 65.2709 500.2284 65.3279 500.2284 67.3487 500.2284 C 69.4834 500.2284 69.4527 499.5896 71.5042 498.8134 C 73.1927 498.1747 73.0892 497.3985 74.8286 497.3985 C 76.8292 497.3985 77.2737 497.3985 78.9842 497.3985 C 81.4292 497.3985 80.6739 493.1538 83.1397 493.1538 C 85.0372 493.1538 85.4252 493.1538 87.7107 493.1538 C 89.7885 493.1538 89.7885 493.1538 91.8663 493.1538 C 93.944 493.1538 93.944 493.1538 96.0218 493.1538 C 98.0996 493.1538 98.0996 493.1538 100.1773 493.1538 C 102.2551 493.1538 102.312 493.1538 104.3328 493.1538 C 106.4676 493.1538 106.6861 492.9077 108.4884 491.7389 C 111.0494 490.0779 110.4407 487.4942 113.0594 487.4942 C 114.804 487.4942 115.1942 487.4942 117.215 487.4942 C 119.3497 487.4942 119.2927 486.7867 121.3705 486.0793 C 123.4482 485.3718 123.3913 484.6643 125.526 484.6643 C 127.5468 484.6643 127.6038 484.6643 129.6815 484.6643 C 131.7593 484.6643 131.7593 484.6643 133.8371 484.6643 C 136.1226 484.6643 136.1226 484.6643 138.4081 484.6643 C 140.4859 484.6643 140.4859 484.6643 142.5636 484.6643 C 144.6414 484.6643 144.6414 484.6643 146.7192 484.6643 C 149.0047 484.6643 149.0047 484.6643 151.2902 484.6643 C 153.368 484.6643 153.368 484.6643 155.4458 484.6643 C 157.5235 484.6643 157.5235 484.6643 159.6013 484.6643 C 161.679 484.6643 161.679 484.6643 163.7568 484.6643 C 165.8346 484.6643 165.8346 484.6643 167.9123 484.6643 C 169.9901 484.6643 169.9901 484.6643 172.0679 484.6643 C 174.3534 484.6643 174.3534 484.6643 176.6389 484.6643 C 178.7167 484.6643 178.7167 484.6643 180.7944 484.6643 C 182.8722 484.6643 182.8722 484.6643 184.95 484.6643 C 187.0277 484.6643 187.0277 484.6643 189.1055 484.6643 C 191.1833 484.6643 191.1833 484.6643 193.261 484.6643 C 195.3388 484.6643 195.3388 484.6643 197.4165 484.6643 C 199.7021 484.6643 199.7021 484.6643 201.9876 484.6643 C 204.0654 484.6643 204.0654 484.6643 206.1431 484.6643 C 208.2209 484.6643 208.2209 484.6643 210.2987 484.6643 C 212.5842 484.6643 212.5842 484.6643 214.8697 484.6643 C 216.9475 484.6643 216.9475 484.6643 219.0253 484.6643 C 221.103 484.6643 221.103 484.6643 223.1808 484.6643 C 224.843 484.6643 224.843 484.6643 226.5052 484.6643 C 228.583 484.6643 228.6399 484.6643 230.6607 484.6643 C 232.7954 484.6643 232.7286 483.9264 234.8162 483.2494 C 237.0919 482.5115 237.0521 481.8345 239.3873 481.8345 C 241.4154 481.8345 241.522 481.8345 243.5428 481.8345 C 245.6776 481.8345 245.5636 480.4196 247.6984 480.4196 C 249.7192 480.4196 249.7761 480.4196 251.8539 480.4196 C 253.9316 480.4196 253.9316 480.4196 256.0094 480.4196 C 258.0872 480.4196 258.0872 480.4196 260.1649 480.4196 C 262.4505 480.4196 262.4505 480.4196 264.736 480.4196 C 266.8138 480.4196 266.8138 480.4196 268.8915 480.4196 C 270.9693 480.4196 270.9693 480.4196 273.0471 480.4196 C 275.1248 480.4196 275.1248 480.4196 277.2026 480.4196 C 279.2803 480.4196 279.2803 480.4196 281.3581 480.4196 C 283.4359 480.4196 283.4359 480.4196 285.5136 480.4196 C 287.7991 480.4196 287.8589 480.4196 290.0847 480.4196 C 292.2222 480.4196 292.1055 479.0047 294.2402 479.0047 C 296.261 479.0047 296.3677 479.0047 298.3958 479.0047 C 300.731 479.0047 300.6316 477.5898 302.9668 477.5898 C 304.9949 477.5898 305.1015 477.5898 307.1223 477.5898 C 309.2571 477.5898 309.1431 476.1749 311.2779 476.1749 C 313.2987 476.1749 313.4126 476.1749 315.4334 476.1749 C 317.5681 476.1749 317.4542 474.76 319.5889 474.76 C 321.6097 474.76 321.6667 474.76 323.7444 474.76 C 326.03 474.76 326.03 474.76 328.3155 474.76 C 330.3933 474.76 330.3933 474.76 332.471 474.76 C 334.5488 474.76 334.5488 474.76 336.6266 474.76 C 338.7043 474.76 338.9016 474.76 340.7821 474.76 C 343.0571 474.76 342.7191 473.0632 344.9376 471.9301 C 346.8746 470.9408 346.9556 470.5152 349.0931 470.5152 C 351.3189 470.5152 351.3786 470.5152 353.6642 470.5152 C 355.7419 470.5152 355.7419 470.5152 357.8197 470.5152 C 359.8975 470.5152 359.9472 470.5152 361.9753 470.5152 C 364.3105 470.5152 364.211 469.1003 366.5463 469.1003 C 368.5743 469.1003 368.6241 469.1003 370.7018 469.1003 C 372.7796 469.1003 372.7796 469.1003 374.8574 469.1003 C 376.5196 469.1003 376.6931 469.1003 378.1818 469.1003 C 380.4331 469.1003 380.2595 467.6854 382.3373 466.2705 C 384.4151 464.8556 384.2074 463.4407 386.4928 463.4407 C 388.5707 463.4407 388.8381 463.4407 391.0639 463.4407 C 393.2014 463.4407 393.0847 462.0258 395.2194 462.0258 C 397.2402 462.0258 397.3541 462.0258 399.3749 462.0258 C 401.5097 462.0258 401.4527 461.3183 403.5305 460.6109 C 405.6082 459.9034 405.7489 460.1853 407.686 459.196 C 409.9044 458.0629 409.6059 457.4536 411.8415 456.3661 C 413.9692 455.3312 414.0773 454.9512 416.4126 454.9512 C 418.4406 454.9512 418.8576 454.9512 420.5681 454.9512 C 423.0132 454.9512 422.2786 450.7065 424.7236 450.7065 C 426.4341 450.7065 426.9987 450.7065 428.8792 450.7065 C 431.1542 450.7065 430.8162 449.0097 433.0347 447.8767 C 434.9717 446.8874 435.3879 447.6306 437.1902 446.4618 C 439.7512 444.8008 439.1425 442.217 441.7613 442.217 C 443.5058 442.217 443.896 442.217 445.9168 442.217 C 448.0515 442.217 448.2701 441.971 450.0723 440.8021 C 452.6334 439.1412 452.0246 436.5574 454.6434 436.5574 C 456.3879 436.5574 456.7781 436.5574 458.7989 436.5574 C 460.9336 436.5574 460.8197 435.1425 462.9544 435.1425 C 464.9752 435.1425 465.0892 435.1425 467.11 435.1425 C 469.2447 435.1425 469.3284 434.7169 471.2655 433.7276 C 473.4839 432.5945 473.3124 432.2653 475.421 430.8978 C 477.6757 429.4354 478.0999 429.9086 479.9921 428.0679 C 482.4632 425.6639 481.8965 425.0909 484.1476 422.4083 C 486.052 420.1387 486.2254 420.2859 488.3031 418.1636 C 490.3809 416.0412 490.069 415.5461 492.4586 413.9188 C 494.2246 412.7163 495.0156 413.8647 496.6142 412.5039 C 499.1711 410.3274 498.2985 409.2483 500.7697 406.8443 C 502.6618 405.0036 503.7588 406.0664 505.3408 404.0145 C 508.1221 400.4068 506.6098 395.525 509.4963 395.525 C 510.7653 395.525 511.7495 395.525 513.6518 395.525 C 516.1128 395.525 515.8209 393.8635 518.2229 392.6952 C 520.1842 391.7412 520.3007 391.9877 522.3784 391.2803 C 524.4562 390.5728 524.6253 390.8915 526.5339 389.8654 C 528.5731 388.7691 528.2348 388.1318 530.2739 387.0355 C 532.1826 386.0094 532.3517 386.3281 534.4294 385.6206 C 536.5072 384.9132 536.9429 385.5369 538.585 384.2057 C 541.3062 381.9996 540.754 381.2723 543.156 378.5461 C 545.1173 376.3201 545.2338 376.4237 547.3115 374.3013 C 549.3893 372.179 549.0774 371.6839 551.467 370.0566 C 553.233 368.8541 553.8566 369.8442 555.6226 368.6417 C 558.0122 367.0144 557.7004 366.5193 559.7781 364.397 C 561.8559 362.2746 561.6433 362.0091 563.9337 360.1523 C 566.0065 358.4718 566.25 358.7847 568.5047 357.3224 C 570.6133 355.9549 570.3852 354.4926 572.6602 354.4926 C 574.5407 354.4926 574.9353 354.4926 576.8157 354.4926 C 579.0908 354.4926 578.8935 353.0777 580.9713 351.6628 C 583.049 350.2479 583.049 350.2479 585.1268 348.8329 C 587.2045 347.418 587.0467 347.0905 589.2823 346.0031 C 591.41 344.9682 591.9067 345.8507 593.8534 344.5882 C 596.27 343.0209 595.5639 340.3435 598.0089 340.3435 C 599.7194 340.3435 600.0867 340.3435 602.1644 340.3435 C 604.45 340.3435 604.6576 340.3435 606.7355 340.3435 C 609.0209 340.3435 608.8133 338.9286 610.8911 337.5137 C 612.9688 336.0988 612.7715 334.6838 615.0466 334.6838 C 616.927 334.6838 617.1243 334.6838 619.2021 334.6838 C 621.2798 334.6838 621.3368 334.6838 623.3576 334.6838 C 625.4923 334.6838 625.3756 333.269 627.5131 333.269 C 629.7389 333.269 629.7987 333.269 632.0842 333.269 C 634.162 333.269 634.3593 333.269 636.2397 333.269 C 638.5148 333.269 638.1202 330.4391 640.3953 330.4391 C 642.2757 330.4391 642.6703 330.4391 644.5508 330.4391 C 646.8258 330.4391 646.4878 328.7424 648.7063 327.6093 C 650.6434 326.62 650.7243 326.1944 652.8618 326.1944 C 655.0876 326.1944 655.2071 326.1944 657.4329 326.1944 C 659.5704 326.1944 660.14 326.1944 661.5884 324.7795 C 664.2956 322.135 663.2652 320.9201 665.744 317.7049 C 667.6285 315.2605 667.899 315.4189 670.315 313.4602 C 672.2622 311.8816 672.2521 311.7634 674.4705 310.6304 C 676.4076 309.641 676.7509 310.2795 678.626 309.2155 C 680.4909 308.1572 680.0856 307.4439 681.9505 306.3857 C 683.8256 305.3216 684.169 305.9601 686.106 304.9707 C 688.3245 303.8377 688.4785 303.8756 690.2615 302.1409 C 692.8417 299.6308 692.4306 299.2075 694.8326 296.4813 C 696.7939 294.2553 697.0837 294.5061 698.9881 292.2365 C 701.2392 289.5539 700.722 289.0505 703.1436 286.5769 C 704.8776 284.8057 705.2214 285.162 707.2991 283.7471 C 709.3769 282.3322 709.8758 282.7988 711.4547 280.9173 C 714.0313 277.8466 713.6043 277.4204 715.6102 273.8427 C 717.9676 269.6384 717.3134 269.0732 720.1813 265.3532 C 721.6767 263.4136 722.6029 264.2946 724.3368 262.5234 C 726.7584 260.0499 726.0707 259.3374 728.4923 256.8638 C 730.2262 255.0926 731.069 255.9155 732.6478 254.034 C 735.2245 250.9633 734.2267 250.03 736.8033 246.9594 C 738.3822 245.0779 739.0116 245.7082 740.9589 244.1296 C 743.3749 242.1709 743.1139 241.8435 745.53 239.8849 C 747.4772 238.3063 747.6077 238.4699 749.6855 237.055 C 751.7632 235.6401 751.6054 235.3126 753.841 234.2252 C 755.9688 233.1903 756.1365 233.5483 758.4121 232.8103 C 760.4998 232.1333 760.6306 232.3847 762.5676 231.3954 C 764.7861 230.2624 764.8183 230.187 766.7231 228.5656 C 768.9738 226.6498 768.8009 226.4432 770.8787 224.3208 C 772.9564 222.1985 772.9564 222.1985 775.0342 220.0761 C 777.1119 217.9538 776.8993 217.6882 779.1897 215.8314 C 781.2626 214.1509 781.6879 214.682 783.7607 213.0016 C 786.0512 211.1448 786.1712 211.1336 787.9163 208.7568 C 790.3267 205.474 789.8326 205.1132 792.0718 201.6823 C 793.9881 198.7462 794.3111 198.9588 796.2274 196.0226 C 798.4666 192.5917 797.6758 191.5926 800.3829 188.9481 C 801.8313 187.5332 802.7361 188.702 804.5384 187.5332 C 807.0994 185.8722 806.8745 185.4627 809.1094 183.2885 C 811.2377 181.218 811.1872 181.1661 813.265 179.0437 C 815.3427 176.9213 814.9547 174.799 817.4205 174.799 C 819.318 174.799 820.2711 174.799 821.9916 174.799 C 824.6344 174.799 824.2308 172.0755 826.1471 169.1393 C 828.3863 165.7084 827.7061 165.0118 830.3026 162.0648 C 831.446 160.7671 832.2126 161.7201 833.627 160.6499 C 835.9526 158.8903 835.7048 158.5275 837.7826 156.4052 C 839.8604 154.2828 839.8098 154.2309 841.9381 152.1604 C 844.1731 149.9862 844.4564 150.2455 846.5092 147.9157 C 848.8197 145.2933 848.4136 144.9387 850.6647 142.2561 C 852.5691 139.9865 853.0751 140.3881 854.8202 138.0113 C 857.2306 134.7285 856.8979 134.474 858.9757 130.9368 C 861.0535 127.3995 861.2002 127.4784 863.1312 123.8622 C 865.3558 119.6964 864.9795 119.4878 867.2868 115.3728 C 869.3428 111.7058 869.6476 111.8819 871.8578 108.2982 C 874.0109 104.8073 874.0824 104.8398 876.0134 101.2237 C 878.2379 97.0578 877.8771 92.7342 880.1689 92.7342 C 880.3704 92.7342 881 92.7342 881 92.7342 L 881 504.4731 L 880.1689 504.4731 L 876.0134 504.4731 L 871.8578 504.4731 L 867.2868 504.4731 L 863.1312 504.4731 L 858.9757 504.4731 L 854.8202 504.4731 L 850.6647 504.4731 L 846.5092 504.4731 L 841.9381 504.4731 L 837.7826 504.4731 L 833.627 504.4731 L 830.3026 504.4731 L 826.1471 504.4731 L 821.9916 504.4731 L 817.4205 504.4731 L 813.265 504.4731 L 809.1094 504.4731 L 804.5384 504.4731 L 800.3829 504.4731 L 796.2274 504.4731 L 792.0718 504.4731 L 787.9163 504.4731 L 783.7607 504.4731 L 779.1897 504.4731 L 775.0342 504.4731 L 770.8787 504.4731 L 766.7231 504.4731 L 762.5676 504.4731 L 758.4121 504.4731 L 753.841 504.4731 L 749.6855 504.4731 L 745.53 504.4731 L 740.9589 504.4731 L 736.8033 504.4731 L 732.6478 504.4731 L 728.4923 504.4731 L 724.3368 504.4731 L 720.1813 504.4731 L 715.6102 504.4731 L 711.4547 504.4731 L 707.2991 504.4731 L 703.1436 504.4731 L 698.9881 504.4731 L 694.8326 504.4731 L 690.2615 504.4731 L 686.106 504.4731 L 681.9505 504.4731 L 678.626 504.4731 L 674.4705 504.4731 L 670.315 504.4731 L 665.744 504.4731 L 661.5884 504.4731 L 657.4329 504.4731 L 652.8618 504.4731 L 648.7063 504.4731 L 644.5508 504.4731 L 640.3953 504.4731 L 636.2397 504.4731 L 632.0842 504.4731 L 627.5131 504.4731 L 623.3576 504.4731 L 619.2021 504.4731 L 615.0466 504.4731 L 610.8911 504.4731 L 606.7355 504.4731 L 602.1644 504.4731 L 598.0089 504.4731 L 593.8534 504.4731 L 589.2823 504.4731 L 585.1268 504.4731 L 580.9713 504.4731 L 576.8157 504.4731 L 572.6602 504.4731 L 568.5047 504.4731 L 563.9337 504.4731 L 559.7781 504.4731 L 555.6226 504.4731 L 551.467 504.4731 L 547.3115 504.4731 L 543.156 504.4731 L 538.585 504.4731 L 534.4294 504.4731 L 530.2739 504.4731 L 526.5339 504.4731 L 522.3784 504.4731 L 518.2229 504.4731 L 513.6518 504.4731 L 509.4963 504.4731 L 505.3408 504.4731 L 500.7697 504.4731 L 496.6142 504.4731 L 492.4586 504.4731 L 488.3031 504.4731 L 484.1476 504.4731 L 479.9921 504.4731 L 475.421 504.4731 L 471.2655 504.4731 L 467.11 504.4731 L 462.9544 504.4731 L 458.7989 504.4731 L 454.6434 504.4731 L 450.0723 504.4731 L 445.9168 504.4731 L 441.7613 504.4731 L 437.1902 504.4731 L 433.0347 504.4731 L 428.8792 504.4731 L 424.7236 504.4731 L 420.5681 504.4731 L 416.4126 504.4731 L 411.8415 504.4731 L 407.686 504.4731 L 403.5305 504.4731 L 399.3749 504.4731 L 395.2194 504.4731 L 391.0639 504.4731 L 386.4928 504.4731 L 382.3373 504.4731 L 378.1818 504.4731 L 374.8574 504.4731 L 370.7018 504.4731 L 366.5463 504.4731 L 361.9753 504.4731 L 357.8197 504.4731 L 353.6642 504.4731 L 349.0931 504.4731 L 344.9376 504.4731 L 340.7821 504.4731 L 336.6266 504.4731 L 332.471 504.4731 L 328.3155 504.4731 L 323.7444 504.4731 L 319.5889 504.4731 L 315.4334 504.4731 L 311.2779 504.4731 L 307.1223 504.4731 L 302.9668 504.4731 L 298.3958 504.4731 L 294.2402 504.4731 L 290.0847 504.4731 L 285.5136 504.4731 L 281.3581 504.4731 L 277.2026 504.4731 L 273.0471 504.4731 L 268.8915 504.4731 L 264.736 504.4731 L 260.1649 504.4731 L 256.0094 504.4731 L 251.8539 504.4731 L 247.6984 504.4731 L 243.5428 504.4731 L 239.3873 504.4731 L 234.8162 504.4731 L 230.6607 504.4731 L 226.5052 504.4731 L 223.1808 504.4731 L 219.0253 504.4731 L 214.8697 504.4731 L 210.2987 504.4731 L 206.1431 504.4731 L 201.9876 504.4731 L 197.4165 504.4731 L 193.261 504.4731 L 189.1055 504.4731 L 184.95 504.4731 L 180.7944 504.4731 L 176.6389 504.4731 L 172.0679 504.4731 L 167.9123 504.4731 L 163.7568 504.4731 L 159.6013 504.4731 L 155.4458 504.4731 L 151.2902 504.4731 L 146.7192 504.4731 L 142.5636 504.4731 L 138.4081 504.4731 L 133.8371 504.4731 L 129.6815 504.4731 L 125.526 504.4731 L 121.3705 504.4731 L 117.215 504.4731 L 113.0594 504.4731 L 108.4884 504.4731 L 104.3328 504.4731 L 100.1773 504.4731 L 96.0218 504.4731 L 91.8663 504.4731 L 87.7107 504.4731 L 83.1397 504.4731 L 78.9842 504.4731 L 74.8286 504.4731 L 71.5042 504.4731 L 67.3487 504.4731 L 63.1932 504.4731 L 58.6221 504.4731 L 54.4666 504.4731 L 50.311 504.4731 L 45.74 504.4731 L 42 504.4731 Z" fill-opacity="0.7" stroke="none" fill="url(#zr2576-gradient-0)">
</path>
<path d="M 42 501.6433 C 42 501.6433 43.87 501.6433 45.74 501.6433 C 48.0255 501.6433 48.0255 501.6433 50.311 501.6433 C 52.3888 501.6433 52.4458 501.6433 54.4666 501.6433 C 56.6013 501.6433 56.4846 500.2284 58.6221 500.2284 C 60.8479 500.2284 60.9076 500.2284 63.1932 500.2284 C 65.2709 500.2284 65.3279 500.2284 67.3487 500.2284 C 69.4834 500.2284 69.4527 499.5896 71.5042 498.8134 C 73.1927 498.1747 73.0892 497.3985 74.8286 497.3985 C 76.8292 497.3985 77.2737 497.3985 78.9842 497.3985 C 81.4292 497.3985 80.6739 493.1538 83.1397 493.1538 C 85.0372 493.1538 85.4252 493.1538 87.7107 493.1538 C 89.7885 493.1538 89.7885 493.1538 91.8663 493.1538 C 93.944 493.1538 93.944 493.1538 96.0218 493.1538 C 98.0996 493.1538 98.0996 493.1538 100.1773 493.1538 C 102.2551 493.1538 102.312 493.1538 104.3328 493.1538 C 106.4676 493.1538 106.6861 492.9077 108.4884 491.7389 C 111.0494 490.0779 110.4407 487.4942 113.0594 487.4942 C 114.804 487.4942 115.1942 487.4942 117.215 487.4942 C 119.3497 487.4942 119.2927 486.7867 121.3705 486.0793 C 123.4482 485.3718 123.3913 484.6643 125.526 484.6643 C 127.5468 484.6643 127.6038 484.6643 129.6815 484.6643 C 131.7593 484.6643 131.7593 484.6643 133.8371 484.6643 C 136.1226 484.6643 136.1226 484.6643 138.4081 484.6643 C 140.4859 484.6643 140.4859 484.6643 142.5636 484.6643 C 144.6414 484.6643 144.6414 484.6643 146.7192 484.6643 C 149.0047 484.6643 149.0047 484.6643 151.2902 484.6643 C 153.368 484.6643 153.368 484.6643 155.4458 484.6643 C 157.5235 484.6643 157.5235 484.6643 159.6013 484.6643 C 161.679 484.6643 161.679 484.6643 163.7568 484.6643 C 165.8346 484.6643 165.8346 484.6643 167.9123 484.6643 C 169.9901 484.6643 169.9901 484.6643 172.0679 484.6643 C 174.3534 484.6643 174.3534 484.6643 176.6389 484.6643 C 178.7167 484.6643 178.7167 484.6643 180.7944 484.6643 C 182.8722 484.6643 182.8722 484.6643 184.95 484.6643 C 187.0277 484.6643 187.0277 484.6643 189.1055 484.6643 C 191.1833 484.6643 191.1833 484.6643 193.261 484.6643 C 195.3388 484.6643 195.3388 484.6643 197.4165 484.6643 C 199.7021 484.6643 199.7021 484.6643 201.9876 484.6643 C 204.0654 484.6643 204.0654 484.6643 206.1431 484.6643 C 208.2209 484.6643 208.2209 484.6643 210.2987 484.6643 C 212.5842 484.6643 212.5842 484.6643 214.8697 484.6643 C 216.9475 484.6643 216.9475 484.6643 219.0253 484.6643 C 221.103 484.6643 221.103 484.6643 223.1808 484.6643 C 224.843 484.6643 224.843 484.6643 226.5052 484.6643 C 228.583 484.6643 228.6399 484.6643 230.6607 484.6643 C 232.7954 484.6643 232.7286 483.9264 234.8162 483.2494 C 237.0919 482.5115 237.0521 481.8345 239.3873 481.8345 C 241.4154 481.8345 241.522 481.8345 243.5428 481.8345 C 245.6776 481.8345 245.5636 480.4196 247.6984 480.4196 C 249.7192 480.4196 249.7761 480.4196 251.8539 480.4196 C 253.9316 480.4196 253.9316 480.4196 256.0094 480.4196 C 258.0872 480.4196 258.0872 480.4196 260.1649 480.4196 C 262.4505 480.4196 262.4505 480.4196 264.736 480.4196 C 266.8138 480.4196 266.8138 480.4196 268.8915 480.4196 C 270.9693 480.4196 270.9693 480.4196 273.0471 480.4196 C 275.1248 480.4196 275.1248 480.4196 277.2026 480.4196 C 279.2803 480.4196 279.2803 480.4196 281.3581 480.4196 C 283.4359 480.4196 283.4359 480.4196 285.5136 480.4196 C 287.7991 480.4196 287.8589 480.4196 290.0847 480.4196 C 292.2222 480.4196 292.1055 479.0047 294.2402 479.0047 C 296.261 479.0047 296.3677 479.0047 298.3958 479.0047 C 300.731 479.0047 300.6316 477.5898 302.9668 477.5898 C 304.9949 477.5898 305.1015 477.5898 307.1223 477.5898 C 309.2571 477.5898 309.1431 476.1749 311.2779 476.1749 C 313.2987 476.1749 313.4126 476.1749 315.4334 476.1749 C 317.5681 476.1749 317.4542 474.76 319.5889 474.76 C 321.6097 474.76 321.6667 474.76 323.7444 474.76 C 326.03 474.76 326.03 474.76 328.3155 474.76 C 330.3933 474.76 330.3933 474.76 332.471 474.76 C 334.5488 474.76 334.5488 474.76 336.6266 474.76 C 338.7043 474.76 338.9016 474.76 340.7821 474.76 C 343.0571 474.76 342.7191 473.0632 344.9376 471.9301 C 346.8746 470.9408 346.9556 470.5152 349.0931 470.5152 C 351.3189 470.5152 351.3786 470.5152 353.6642 470.5152 C 355.7419 470.5152 355.7419 470.5152 357.8197 470.5152 C 359.8975 470.5152 359.9472 470.5152 361.9753 470.5152 C 364.3105 470.5152 364.211 469.1003 366.5463 469.1003 C 368.5743 469.1003 368.6241 469.1003 370.7018 469.1003 C 372.7796 469.1003 372.7796 469.1003 374.8574 469.1003 C 376.5196 469.1003 376.6931 469.1003 378.1818 469.1003 C 380.4331 469.1003 380.2595 467.6854 382.3373 466.2705 C 384.4151 464.8556 384.2074 463.4407 386.4928 463.4407 C 388.5707 463.4407 388.8381 463.4407 391.0639 463.4407 C 393.2014 463.4407 393.0847 462.0258 395.2194 462.0258 C 397.2402 462.0258 397.3541 462.0258 399.3749 462.0258 C 401.5097 462.0258 401.4527 461.3183 403.5305 460.6109 C 405.6082 459.9034 405.7489 460.1853 407.686 459.196 C 409.9044 458.0629 409.6059 457.4536 411.8415 456.3661 C 413.9692 455.3312 414.0773 454.9512 416.4126 454.9512 C 418.4406 454.9512 418.8576 454.9512 420.5681 454.9512 C 423.0132 454.9512 422.2786 450.7065 424.7236 450.7065 C 426.4341 450.7065 426.9987 450.7065 428.8792 450.7065 C 431.1542 450.7065 430.8162 449.0097 433.0347 447.8767 C 434.9717 446.8874 435.3879 447.6306 437.1902 446.4618 C 439.7512 444.8008 439.1425 442.217 441.7613 442.217 C 443.5058 442.217 443.896 442.217 445.9168 442.217 C 448.0515 442.217 448.2701 441.971 450.0723 440.8021 C 452.6334 439.1412 452.0246 436.5574 454.6434 436.5574 C 456.3879 436.5574 456.7781 436.5574 458.7989 436.5574 C 460.9336 436.5574 460.8197 435.1425 462.9544 435.1425 C 464.9752 435.1425 465.0892 435.1425 467.11 435.1425 C 469.2447 435.1425 469.3284 434.7169 471.2655 433.7276 C 473.4839 432.5945 473.3124 432.2653 475.421 430.8978 C 477.6757 429.4354 478.0999 429.9086 479.9921 428.0679 C 482.4632 425.6639 481.8965 425.0909 484.1476 422.4083 C 486.052 420.1387 486.2254 420.2859 488.3031 418.1636 C 490.3809 416.0412 490.069 415.5461 492.4586 413.9188 C 494.2246 412.7163 495.0156 413.8647 496.6142 412.5039 C 499.1711 410.3274 498.2985 409.2483 500.7697 406.8443 C 502.6618 405.0036 503.7588 406.0664 505.3408 404.0145 C 508.1221 400.4068 506.6098 395.525 509.4963 395.525 C 510.7653 395.525 511.7495 395.525 513.6518 395.525 C 516.1128 395.525 515.8209 393.8635 518.2229 392.6952 C 520.1842 391.7412 520.3007 391.9877 522.3784 391.2803 C 524.4562 390.5728 524.6253 390.8915 526.5339 389.8654 C 528.5731 388.7691 528.2348 388.1318 530.2739 387.0355 C 532.1826 386.0094 532.3517 386.3281 534.4294 385.6206 C 536.5072 384.9132 536.9429 385.5369 538.585 384.2057 C 541.3062 381.9996 540.754 381.2723 543.156 378.5461 C 545.1173 376.3201 545.2338 376.4237 547.3115 374.3013 C 549.3893 372.179 549.0774 371.6839 551.467 370.0566 C 553.233 368.8541 553.8566 369.8442 555.6226 368.6417 C 558.0122 367.0144 557.7004 366.5193 559.7781 364.397 C 561.8559 362.2746 561.6433 362.0091 563.9337 360.1523 C 566.0065 358.4718 566.25 358.7847 568.5047 357.3224 C 570.6133 355.9549 570.3852 354.4926 572.6602 354.4926 C 574.5407 354.4926 574.9353 354.4926 576.8157 354.4926 C 579.0908 354.4926 578.8935 353.0777 580.9713 351.6628 C 583.049 350.2479 583.049 350.2479 585.1268 348.8329 C 587.2045 347.418 587.0467 347.0905 589.2823 346.0031 C 591.41 344.9682 591.9067 345.8507 593.8534 344.5882 C 596.27 343.0209 595.5639 340.3435 598.0089 340.3435 C 599.7194 340.3435 600.0867 340.3435 602.1644 340.3435 C 604.45 340.3435 604.6576 340.3435 606.7355 340.3435 C 609.0209 340.3435 608.8133 338.9286 610.8911 337.5137 C 612.9688 336.0988 612.7715 334.6838 615.0466 334.6838 C 616.927 334.6838 617.1243 334.6838 619.2021 334.6838 C 621.2798 334.6838 621.3368 334.6838 623.3576 334.6838 C 625.4923 334.6838 625.3756 333.269 627.5131 333.269 C 629.7389 333.269 629.7987 333.269 632.0842 333.269 C 634.162 333.269 634.3593 333.269 636.2397 333.269 C 638.5148 333.269 638.1202 330.4391 640.3953 330.4391 C 642.2757 330.4391 642.6703 330.4391 644.5508 330.4391 C 646.8258 330.4391 646.4878 328.7424 648.7063 327.6093 C 650.6434 326.62 650.7243 326.1944 652.8618 326.1944 C 655.0876 326.1944 655.2071 326.1944 657.4329 326.1944 C 659.5704 326.1944 660.14 326.1944 661.5884 324.7795 C 664.2956 322.135 663.2652 320.9201 665.744 317.7049 C 667.6285 315.2605 667.899 315.4189 670.315 313.4602 C 672.2622 311.8816 672.2521 311.7634 674.4705 310.6304 C 676.4076 309.641 676.7509 310.2795 678.626 309.2155 C 680.4909 308.1572 680.0856 307.4439 681.9505 306.3857 C 683.8256 305.3216 684.169 305.9601 686.106 304.9707 C 688.3245 303.8377 688.4785 303.8756 690.2615 302.1409 C 692.8417 299.6308 692.4306 299.2075 694.8326 296.4813 C 696.7939 294.2553 697.0837 294.5061 698.9881 292.2365 C 701.2392 289.5539 700.722 289.0505 703.1436 286.5769 C 704.8776 284.8057 705.2214 285.162 707.2991 283.7471 C 709.3769 282.3322 709.8758 282.7988 711.4547 280.9173 C 714.0313 277.8466 713.6043 277.4204 715.6102 273.8427 C 717.9676 269.6384 717.3134 269.0732 720.1813 265.3532 C 721.6767 263.4136 722.6029 264.2946 724.3368 262.5234 C 726.7584 260.0499 726.0707 259.3374 728.4923 256.8638 C 730.2262 255.0926 731.069 255.9155 732.6478 254.034 C 735.2245 250.9633 734.2267 250.03 736.8033 246.9594 C 738.3822 245.0779 739.0116 245.7082 740.9589 244.1296 C 743.3749 242.1709 743.1139 241.8435 745.53 239.8849 C 747.4772 238.3063 747.6077 238.4699 749.6855 237.055 C 751.7632 235.6401 751.6054 235.3126 753.841 234.2252 C 755.9688 233.1903 756.1365 233.5483 758.4121 232.8103 C 760.4998 232.1333 760.6306 232.3847 762.5676 231.3954 C 764.7861 230.2624 764.8183 230.187 766.7231 228.5656 C 768.9738 226.6498 768.8009 226.4432 770.8787 224.3208 C 772.9564 222.1985 772.9564 222.1985 775.0342 220.0761 C 777.1119 217.9538 776.8993 217.6882 779.1897 215.8314 C 781.2626 214.1509 781.6879 214.682 783.7607 213.0016 C 786.0512 211.1448 786.1712 211.1336 787.9163 208.7568 C 790.3267 205.474 789.8326 205.1132 792.0718 201.6823 C 793.9881 198.7462 794.3111 198.9588 796.2274 196.0226 C 798.4666 192.5917 797.6758 191.5926 800.3829 188.9481 C 801.8313 187.5332 802.7361 188.702 804.5384 187.5332 C 807.0994 185.8722 806.8745 185.4627 809.1094 183.2885 C 811.2377 181.218 811.1872 181.1661 813.265 179.0437 C 815.3427 176.9213 814.9547 174.799 817.4205 174.799 C 819.318 174.799 820.2711 174.799 821.9916 174.799 C 824.6344 174.799 824.2308 172.0755 826.1471 169.1393 C 828.3863 165.7084 827.7061 165.0118 830.3026 162.0648 C 831.446 160.7671 832.2126 161.7201 833.627 160.6499 C 835.9526 158.8903 835.7048 158.5275 837.7826 156.4052 C 839.8604 154.2828 839.8098 154.2309 841.9381 152.1604 C 844.1731 149.9862 844.4564 150.2455 846.5092 147.9157 C 848.8197 145.2933 848.4136 144.9387 850.6647 142.2561 C 852.5691 139.9865 853.0751 140.3881 854.8202 138.0113 C 857.2306 134.7285 856.8979 134.474 858.9757 130.9368 C 861.0535 127.3995 861.2002 127.4784 863.1312 123.8622 C 865.3558 119.6964 864.9795 119.4878 867.2868 115.3728 C 869.3428 111.7058 869.6476 111.8819 871.8578 108.2982 C 874.0109 104.8073 874.0824 104.8398 876.0134 101.2237 C 878.2379 97.0578 877.8771 92.7342 880.1689 92.7342 C 880.3704 92.7342 881 92.7342 881 92.7342" fill="none" stroke="#39a85a" stroke-width="2" paint-order="fill" stroke-opacity="1" stroke-dasharray="" stroke-linecap="butt" stroke-linejoin="bevel" stroke-miterlimit="10">
</path>
</g>
<path d="M -5 -5 L 114 -5 L 114 19 L -5 19 L -5 -5" fill="rgba(0,0,0,0)" fill-opacity="1" stroke="#ccc" stroke-width="0" paint-order="fill" stroke-opacity="1" stroke-dasharray="" stroke-linecap="butt" stroke-miterlimit="10" transform="matrix(1,0,0,1,393.5,32.5)">
</path>
<path d="M 0 7 L 25 7" fill="#000" fill-opacity="1" stroke="#39a85a" stroke-width="2" paint-order="fill" stroke-opacity="1" stroke-dasharray="" transform="matrix(1,0,0,1,394.5,32.5)">
</path>
<path d="M 18.1 7 A 5.6 5.6 0 1 1 18.1 6.9994" fill="#fff" fill-opacity="1" stroke="#39a85a" stroke-width="2" paint-order="fill" stroke-opacity="1" stroke-dasharray="" transform="matrix(1,0,0,1,394.5,32.5)">
</path>
<text xml:space="preserve" style="font: sans-serif 14px normal normal normal 14px;" fill="#333" fill-opacity="1" stroke="none" transform="matrix(1,0,0,1,394.5,32.5)" dominant-baseline="central" text-anchor="start" x="30" y="7">apache/hudi</text>
<path d="M -15 -14.6434 L 15 -14.6434 L 15 14.6434 L -15 14.6434 L -15 -14.6434" fill="none" fill-opacity="1" stroke="#ccc" stroke-width="0" paint-order="fill" stroke-opacity="1" stroke-dasharray="" stroke-linecap="butt" stroke-miterlimit="10" transform="matrix(1,0,0,1,881,14.6434)">
</path>
<path d="M -5 -5 L 184 -5 L 184 23 L -5 23 L -5 -5" fill="rgba(0,0,0,0)" fill-opacity="1" stroke="#ccc" stroke-width="0" paint-order="fill" stroke-opacity="1" stroke-dasharray="" stroke-linecap="butt" stroke-miterlimit="10" transform="matrix(1,0,0,1,5,5)">
</path>
<path d="M 5.1196 2.3717 C 4.1376 2.3717 3.3354 2.8977 2.9613 3.7131 L -1.7849 1.6943 C -1.508 1.2655 -1.3561 0.7401 -1.3561 0.1732 A 2.8641 2.8641 0 0 0 -1.4394 -0.518 L 1.5913 -2.8692 C 1.9932 -2.5653 2.5046 -2.3855 3.0723 -2.3855 C 4.4423 -2.3855 5.4659 -3.4084 5.4659 -4.7638 C 5.4659 -6.1191 4.4415 -7.1434 3.0723 -7.1434 C 1.7024 -7.1434 0.6919 -6.1206 0.6919 -4.7645 C 0.6919 -4.4189 0.7613 -4.1011 0.8717 -3.8242 L -1.9238 -1.6797 C -2.4769 -2.5097 -3.3902 -3.0906 -4.4277 -3.0906 A 3.0643 3.0643 0 0 0 -7.5 -0.0343 L -7.5 -0.0197 A 3.0643 3.0643 0 0 0 -4.4277 3.049 C -3.792 3.049 -3.1965 2.8838 -2.7121 2.5799 L 2.7399 4.9033 C 2.8093 6.1892 3.8059 7.1434 5.1196 7.1434 C 6.4903 7.1434 7.5 6.1206 7.5 4.7645 C 7.5 3.4092 6.4756 2.3717 5.1203 2.3717 Z" fill="none" stroke="#666" stroke-width="1" paint-order="fill" stroke-opacity="1" stroke-dasharray="" stroke-linecap="butt" stroke-miterlimit="10" transform="matrix(1,0,0,1,881,14.6434)">
</path>
<text xml:space="preserve" style="font: sans-serif 18px normal normal bold 18px;" fill="#464646" fill-opacity="1" stroke="none" transform="matrix(1,0,0,1,5,5)" dominant-baseline="central" text-anchor="start" x="0" y="9">Contributor Over Time</text>
<defs>
<linearGradient id="zr2576-gradient-0" x1="0" y1="0" x2="0" y2="1" gradientUnits="objectBoundingBox">
<stop offset="0%" stop-color="#39a85a80">
</stop>
<stop offset="100%" stop-color="#39a85a00">
</stop>
</linearGradient>
<clipPath id="zr2576-clip-0">
<path d="M 41 79 L 896.000000 79 L 896.000000 505.4731 L 41 505.4731 L 41 79" fill="#000" fill-opacity="1" stroke="none">
</path>
</clipPath>
</defs>
</g>
</svg>